<?xml version="1.0" encoding="UTF-8" standalone="no"?>
<!DOCTYPE svg PUBLIC "-//W3C//DTD SVG 1.1//EN"
 "http://www.w3.org/Graphics/SVG/1.1/DTD/svg11.dtd">
<!-- Generated by graphviz version 2.43.0 (0)
 -->
<!-- Title: stdlib_deps Pages: 1 -->
<svg width="100%"
 viewBox="0.00 0.00 885.00 1340.00" xmlns="http://www.w3.org/2000/svg" xmlns:xlink="http://www.w3.org/1999/xlink">
<g id="graph0" class="graph" transform="scale(1 1) rotate(0) translate(4 1336)">
<title>stdlib_deps</title>
<polygon fill="white" stroke="transparent" points="-4,4 -4,-1336 881,-1336 881,4 -4,4"/>
<!-- bool -->
<g id="node1" class="node">
<title>bool</title>
<g id="a_node1"><a xlink:href="#bool" xlink:title="bool">
<polygon fill="#ff540a" stroke="#ff540a" points="609,-252 555,-252 555,-216 609,-216 609,-252"/>
<text text-anchor="middle" x="582" y="-230.3" font-family="Times,serif" font-size="14.00">bool</text>
</a>
</g>
</g>
<!-- classes -->
<g id="node2" class="node">
<title>classes</title>
<g id="a_node2"><a xlink:href="#classes" xlink:title="classes">
<polygon fill="#ff540a" stroke="#ff540a" points="674,-180 606,-180 606,-144 674,-144 674,-180"/>
<text text-anchor="middle" x="640" y="-158.3" font-family="Times,serif" font-size="14.00">classes</text>
</a>
</g>
</g>
<!-- bool&#45;&gt;classes -->
<g id="edge1" class="edge">
<title>bool&#45;&gt;classes</title>
<path fill="none" stroke="black" d="M596.34,-215.7C603.29,-207.3 611.77,-197.07 619.4,-187.86"/>
<polygon fill="black" stroke="black" points="622.14,-190.04 625.83,-180.1 616.75,-185.57 622.14,-190.04"/>
</g>
<!-- program -->
<g id="node3" class="node">
<title>program</title>
<g id="a_node3"><a xlink:href="#program" xlink:title="program">
<polygon fill="#ff540a" stroke="#ff540a" points="776,-108 698,-108 698,-72 776,-72 776,-108"/>
<text text-anchor="middle" x="737" y="-86.3" font-family="Times,serif" font-size="14.00">program</text>
</a>
</g>
</g>
<!-- classes&#45;&gt;program -->
<g id="edge2" class="edge">
<title>classes&#45;&gt;program</title>
<path fill="none" stroke="black" d="M663.98,-143.7C676.31,-134.8 691.52,-123.82 704.85,-114.2"/>
<polygon fill="black" stroke="black" points="707.24,-116.79 713.3,-108.1 703.14,-111.12 707.24,-116.79"/>
</g>
<!-- relations -->
<g id="node4" class="node">
<title>relations</title>
<g id="a_node4"><a xlink:href="#relations" xlink:title="relations">
<polygon fill="#ff540a" stroke="#ff540a" points="680,-108 600,-108 600,-72 680,-72 680,-108"/>
<text text-anchor="middle" x="640" y="-86.3" font-family="Times,serif" font-size="14.00">relations</text>
</a>
</g>
</g>
<!-- classes&#45;&gt;relations -->
<g id="edge3" class="edge">
<title>classes&#45;&gt;relations</title>
<path fill="none" stroke="black" d="M640,-143.7C640,-135.98 640,-126.71 640,-118.11"/>
<polygon fill="black" stroke="black" points="643.5,-118.1 640,-108.1 636.5,-118.1 643.5,-118.1"/>
</g>
<!-- corelib&#45;wrapper -->
<g id="node5" class="node">
<title>corelib&#45;wrapper</title>
<g id="a_node5"><a xlink:href="#corelib-wrapper" xlink:title="corelib&#45;wrapper">
<polygon fill="#ff540a" stroke="#ff540a" points="732,-36 602,-36 602,0 732,0 732,-36"/>
<text text-anchor="middle" x="667" y="-14.3" font-family="Times,serif" font-size="14.00">corelib&#45;wrapper</text>
</a>
</g>
</g>
<!-- program&#45;&gt;corelib&#45;wrapper -->
<g id="edge4" class="edge">
<title>program&#45;&gt;corelib&#45;wrapper</title>
<path fill="none" stroke="black" d="M719.7,-71.7C711.14,-63.14 700.66,-52.66 691.3,-43.3"/>
<polygon fill="black" stroke="black" points="693.65,-40.7 684.1,-36.1 688.7,-45.65 693.65,-40.7"/>
</g>
<!-- logic -->
<g id="node6" class="node">
<title>logic</title>
<g id="a_node6"><a xlink:href="#logic" xlink:title="logic">
<polygon fill="#ff540a" stroke="#ff540a" points="817,-36 763,-36 763,0 817,0 817,-36"/>
<text text-anchor="middle" x="790" y="-14.3" font-family="Times,serif" font-size="14.00">logic</text>
</a>
</g>
</g>
<!-- program&#45;&gt;logic -->
<g id="edge5" class="edge">
<title>program&#45;&gt;logic</title>
<path fill="none" stroke="black" d="M750.1,-71.7C756.39,-63.39 764.05,-53.28 770.96,-44.14"/>
<polygon fill="black" stroke="black" points="773.8,-46.19 777.05,-36.1 768.22,-41.96 773.8,-46.19"/>
</g>
<!-- relations&#45;&gt;corelib&#45;wrapper -->
<g id="edge38" class="edge">
<title>relations&#45;&gt;corelib&#45;wrapper</title>
<path fill="none" stroke="black" d="M646.67,-71.7C649.71,-63.81 653.38,-54.3 656.76,-45.55"/>
<polygon fill="black" stroke="black" points="660.07,-46.69 660.4,-36.1 653.54,-44.17 660.07,-46.69"/>
</g>
<!-- strings -->
<g id="node7" class="node">
<title>strings</title>
<g id="a_node7"><a xlink:href="#strings" xlink:title="strings">
<polygon fill="#ff540a" stroke="#ff540a" points="457.5,-828 390.5,-828 390.5,-792 457.5,-792 457.5,-828"/>
<text text-anchor="middle" x="424" y="-806.3" font-family="Times,serif" font-size="14.00">strings</text>
</a>
</g>
</g>
<!-- arith -->
<g id="node8" class="node">
<title>arith</title>
<g id="a_node8"><a xlink:href="#arith" xlink:title="arith">
<polygon fill="#ff540a" stroke="#ff540a" points="328,-756 274,-756 274,-720 328,-720 328,-756"/>
<text text-anchor="middle" x="301" y="-734.3" font-family="Times,serif" font-size="14.00">arith</text>
</a>
</g>
</g>
<!-- strings&#45;&gt;arith -->
<g id="edge6" class="edge">
<title>strings&#45;&gt;arith</title>
<path fill="none" stroke="black" d="M393.91,-791.88C376.83,-782.16 355.33,-769.92 337.32,-759.67"/>
<polygon fill="black" stroke="black" points="338.68,-756.42 328.26,-754.51 335.22,-762.5 338.68,-756.42"/>
</g>
<!-- ring -->
<g id="node22" class="node">
<title>ring</title>
<g id="a_node22"><a xlink:href="#ring" xlink:title="ring">
<polygon fill="#ff540a" stroke="#ff540a" points="245,-684 191,-684 191,-648 245,-648 245,-684"/>
<text text-anchor="middle" x="218" y="-662.3" font-family="Times,serif" font-size="14.00">ring</text>
</a>
</g>
</g>
<!-- arith&#45;&gt;ring -->
<g id="edge19" class="edge">
<title>arith&#45;&gt;ring</title>
<path fill="none" stroke="black" d="M280.48,-719.7C270.13,-710.97 257.41,-700.24 246.16,-690.75"/>
<polygon fill="black" stroke="black" points="248.18,-687.88 238.28,-684.1 243.67,-693.23 248.18,-687.88"/>
</g>
<!-- reals -->
<g id="node9" class="node">
<title>reals</title>
<g id="a_node9"><a xlink:href="#reals" xlink:title="reals">
<polygon fill="#ff540a" stroke="#ff540a" points="184,-1116 130,-1116 130,-1080 184,-1080 184,-1116"/>
<text text-anchor="middle" x="157" y="-1094.3" font-family="Times,serif" font-size="14.00">reals</text>
</a>
</g>
</g>
<!-- qarith -->
<g id="node10" class="node">
<title>qarith</title>
<g id="a_node10"><a xlink:href="#qarith" xlink:title="qarith">
<polygon fill="#ff540a" stroke="#ff540a" points="262,-1044 202,-1044 202,-1008 262,-1008 262,-1044"/>
<text text-anchor="middle" x="232" y="-1022.3" font-family="Times,serif" font-size="14.00">qarith</text>
</a>
</g>
</g>
<!-- reals&#45;&gt;qarith -->
<g id="edge7" class="edge">
<title>reals&#45;&gt;qarith</title>
<path fill="none" stroke="black" d="M175.54,-1079.7C184.8,-1071.05 196.16,-1060.45 206.26,-1051.03"/>
<polygon fill="black" stroke="black" points="208.75,-1053.49 213.67,-1044.1 203.98,-1048.37 208.75,-1053.49"/>
</g>
<!-- vectors -->
<g id="node11" class="node">
<title>vectors</title>
<g id="a_node11"><a xlink:href="#vectors" xlink:title="vectors">
<polygon fill="#ff540a" stroke="#ff540a" points="477.5,-900 408.5,-900 408.5,-864 477.5,-864 477.5,-900"/>
<text text-anchor="middle" x="443" y="-878.3" font-family="Times,serif" font-size="14.00">vectors</text>
</a>
</g>
</g>
<!-- reals&#45;&gt;vectors -->
<g id="edge8" class="edge">
<title>reals&#45;&gt;vectors</title>
<path fill="none" stroke="black" d="M184.36,-1083.64C187.25,-1082.36 190.17,-1081.12 193,-1080 294.26,-1039.86 346.55,-1058.31 413,-972 426.87,-953.99 434.53,-929.2 438.63,-910.36"/>
<polygon fill="black" stroke="black" points="442.11,-910.8 440.61,-900.31 435.24,-909.45 442.11,-910.8"/>
</g>
<!-- lqa -->
<g id="node12" class="node">
<title>lqa</title>
<g id="a_node12"><a xlink:href="#lqa" xlink:title="lqa">
<polygon fill="#ff540a" stroke="#ff540a" points="184,-1044 130,-1044 130,-1008 184,-1008 184,-1044"/>
<text text-anchor="middle" x="157" y="-1022.3" font-family="Times,serif" font-size="14.00">lqa</text>
</a>
</g>
</g>
<!-- reals&#45;&gt;lqa -->
<g id="edge9" class="edge">
<title>reals&#45;&gt;lqa</title>
<path fill="none" stroke="black" d="M157,-1079.7C157,-1071.98 157,-1062.71 157,-1054.11"/>
<polygon fill="black" stroke="black" points="160.5,-1054.1 157,-1044.1 153.5,-1054.1 160.5,-1054.1"/>
</g>
<!-- classical&#45;logic -->
<g id="node13" class="node">
<title>classical&#45;logic</title>
<g id="a_node13"><a xlink:href="#classical-logic" xlink:title="classical&#45;logic">
<polygon fill="#ff540a" stroke="#ff540a" points="372.5,-828 257.5,-828 257.5,-792 372.5,-792 372.5,-828"/>
<text text-anchor="middle" x="315" y="-806.3" font-family="Times,serif" font-size="14.00">classical&#45;logic</text>
</a>
</g>
</g>
<!-- reals&#45;&gt;classical&#45;logic -->
<g id="edge10" class="edge">
<title>reals&#45;&gt;classical&#45;logic</title>
<path fill="none" stroke="black" d="M184.11,-1084.16C187.11,-1082.76 190.12,-1081.35 193,-1080 227.6,-1063.85 247.51,-1074.1 271,-1044 318.81,-982.72 320.03,-885.1 317.38,-838.07"/>
<polygon fill="black" stroke="black" points="320.87,-837.79 316.71,-828.04 313.88,-838.26 320.87,-837.79"/>
</g>
<!-- nsatz -->
<g id="node14" class="node">
<title>nsatz</title>
<g id="a_node14"><a xlink:href="#nsatz" xlink:title="nsatz">
<polygon fill="#ff540a" stroke="#ff540a" points="131.5,-972 76.5,-972 76.5,-936 131.5,-936 131.5,-972"/>
<text text-anchor="middle" x="104" y="-950.3" font-family="Times,serif" font-size="14.00">nsatz</text>
</a>
</g>
</g>
<!-- reals&#45;&gt;nsatz -->
<g id="edge11" class="edge">
<title>reals&#45;&gt;nsatz</title>
<path fill="none" stroke="black" d="M142.73,-1079.9C135.17,-1069.99 126.36,-1056.95 121,-1044 112.84,-1024.29 108.55,-1000.48 106.33,-982.46"/>
<polygon fill="black" stroke="black" points="109.78,-981.88 105.22,-972.32 102.83,-982.65 109.78,-981.88"/>
</g>
<!-- field -->
<g id="node19" class="node">
<title>field</title>
<g id="a_node19"><a xlink:href="#field" xlink:title="field">
<polygon fill="#ff540a" stroke="#ff540a" points="204,-972 150,-972 150,-936 204,-936 204,-972"/>
<text text-anchor="middle" x="177" y="-950.3" font-family="Times,serif" font-size="14.00">field</text>
</a>
</g>
</g>
<!-- qarith&#45;&gt;field -->
<g id="edge14" class="edge">
<title>qarith&#45;&gt;field</title>
<path fill="none" stroke="black" d="M218.4,-1007.7C211.88,-999.39 203.93,-989.28 196.75,-980.14"/>
<polygon fill="black" stroke="black" points="199.37,-977.81 190.44,-972.1 193.87,-982.13 199.37,-977.81"/>
</g>
<!-- lists -->
<g id="node23" class="node">
<title>lists</title>
<g id="a_node23"><a xlink:href="#lists" xlink:title="lists">
<polygon fill="#ff540a" stroke="#ff540a" points="338,-612 284,-612 284,-576 338,-576 338,-612"/>
<text text-anchor="middle" x="311" y="-590.3" font-family="Times,serif" font-size="14.00">lists</text>
</a>
</g>
</g>
<!-- vectors&#45;&gt;lists -->
<g id="edge41" class="edge">
<title>vectors&#45;&gt;lists</title>
<path fill="none" stroke="black" d="M453.78,-863.72C463.65,-845.62 475.52,-816.49 467,-792 441.63,-719.11 376.82,-652.88 339.2,-618.92"/>
<polygon fill="black" stroke="black" points="341.41,-616.2 331.61,-612.17 336.76,-621.43 341.41,-616.2"/>
</g>
<!-- lqa&#45;&gt;field -->
<g id="edge44" class="edge">
<title>lqa&#45;&gt;field</title>
<path fill="none" stroke="black" d="M161.94,-1007.7C164.17,-999.9 166.85,-990.51 169.33,-981.83"/>
<polygon fill="black" stroke="black" points="172.73,-982.68 172.11,-972.1 166,-980.76 172.73,-982.68"/>
</g>
<!-- classical&#45;logic&#45;&gt;arith -->
<g id="edge46" class="edge">
<title>classical&#45;logic&#45;&gt;arith</title>
<path fill="none" stroke="black" d="M311.54,-791.7C310,-783.98 308.14,-774.71 306.42,-766.11"/>
<polygon fill="black" stroke="black" points="309.81,-765.22 304.42,-756.1 302.95,-766.6 309.81,-765.22"/>
</g>
<!-- zarith -->
<g id="node17" class="node">
<title>zarith</title>
<g id="a_node17"><a xlink:href="#zarith" xlink:title="zarith">
<polygon fill="#ff540a" stroke="#ff540a" points="241.5,-900 182.5,-900 182.5,-864 241.5,-864 241.5,-900"/>
<text text-anchor="middle" x="212" y="-878.3" font-family="Times,serif" font-size="14.00">zarith</text>
</a>
</g>
</g>
<!-- nsatz&#45;&gt;zarith -->
<g id="edge47" class="edge">
<title>nsatz&#45;&gt;zarith</title>
<path fill="none" stroke="black" d="M130.42,-935.88C144.41,-926.81 161.78,-915.55 176.89,-905.76"/>
<polygon fill="black" stroke="black" points="178.99,-908.57 185.48,-900.19 175.18,-902.69 178.99,-908.57"/>
</g>
<!-- qarith&#45;base -->
<g id="node35" class="node">
<title>qarith&#45;base</title>
<g id="a_node35"><a xlink:href="#qarith-base" xlink:title="qarith&#45;base">
<polygon fill="#ff540a" stroke="#ff540a" points="164,-900 66,-900 66,-864 164,-864 164,-900"/>
<text text-anchor="middle" x="115" y="-878.3" font-family="Times,serif" font-size="14.00">qarith&#45;base</text>
</a>
</g>
</g>
<!-- nsatz&#45;&gt;qarith&#45;base -->
<g id="edge48" class="edge">
<title>nsatz&#45;&gt;qarith&#45;base</title>
<path fill="none" stroke="black" d="M106.72,-935.7C107.93,-927.98 109.39,-918.71 110.74,-910.11"/>
<polygon fill="black" stroke="black" points="114.22,-910.53 112.31,-900.1 107.3,-909.44 114.22,-910.53"/>
</g>
<!-- arith&#45;base -->
<g id="node15" class="node">
<title>arith&#45;base</title>
<g id="a_node15"><a xlink:href="#arith-base" xlink:title="arith&#45;base">
<polygon fill="#ff540a" stroke="#ff540a" points="277.5,-396 188.5,-396 188.5,-360 277.5,-360 277.5,-396"/>
<text text-anchor="middle" x="233" y="-374.3" font-family="Times,serif" font-size="14.00">arith&#45;base</text>
</a>
</g>
</g>
<!-- structures -->
<g id="node16" class="node">
<title>structures</title>
<g id="a_node16"><a xlink:href="#structures" xlink:title="structures">
<polygon fill="#ff540a" stroke="#ff540a" points="511.5,-324 420.5,-324 420.5,-288 511.5,-288 511.5,-324"/>
<text text-anchor="middle" x="466" y="-302.3" font-family="Times,serif" font-size="14.00">structures</text>
</a>
</g>
</g>
<!-- arith&#45;base&#45;&gt;structures -->
<g id="edge12" class="edge">
<title>arith&#45;base&#45;&gt;structures</title>
<path fill="none" stroke="black" d="M277.65,-363.59C315.49,-352.22 369.93,-335.86 410.56,-323.66"/>
<polygon fill="black" stroke="black" points="411.74,-326.96 420.31,-320.73 409.72,-320.25 411.74,-326.96"/>
</g>
<!-- structures&#45;&gt;bool -->
<g id="edge20" class="edge">
<title>structures&#45;&gt;bool</title>
<path fill="none" stroke="black" d="M494.38,-287.88C509.88,-278.52 529.25,-266.83 545.83,-256.83"/>
<polygon fill="black" stroke="black" points="547.96,-259.63 554.71,-251.47 544.34,-253.64 547.96,-259.63"/>
</g>
<!-- lia -->
<g id="node18" class="node">
<title>lia</title>
<g id="a_node18"><a xlink:href="#lia" xlink:title="lia">
<polygon fill="#ff540a" stroke="#ff540a" points="239,-828 185,-828 185,-792 239,-792 239,-828"/>
<text text-anchor="middle" x="212" y="-806.3" font-family="Times,serif" font-size="14.00">lia</text>
</a>
</g>
</g>
<!-- zarith&#45;&gt;lia -->
<g id="edge13" class="edge">
<title>zarith&#45;&gt;lia</title>
<path fill="none" stroke="black" d="M212,-863.7C212,-855.98 212,-846.71 212,-838.11"/>
<polygon fill="black" stroke="black" points="215.5,-838.1 212,-828.1 208.5,-838.1 215.5,-838.1"/>
</g>
<!-- lia&#45;&gt;arith -->
<g id="edge27" class="edge">
<title>lia&#45;&gt;arith</title>
<path fill="none" stroke="black" d="M234,-791.7C245.21,-782.88 259,-772.03 271.15,-762.47"/>
<polygon fill="black" stroke="black" points="273.56,-765.04 279.25,-756.1 269.23,-759.54 273.56,-765.04"/>
</g>
<!-- narith -->
<g id="node21" class="node">
<title>narith</title>
<g id="a_node21"><a xlink:href="#narith" xlink:title="narith">
<polygon fill="#ff540a" stroke="#ff540a" points="244,-756 184,-756 184,-720 244,-720 244,-756"/>
<text text-anchor="middle" x="214" y="-734.3" font-family="Times,serif" font-size="14.00">narith</text>
</a>
</g>
</g>
<!-- lia&#45;&gt;narith -->
<g id="edge26" class="edge">
<title>lia&#45;&gt;narith</title>
<path fill="none" stroke="black" d="M212.49,-791.7C212.71,-783.98 212.98,-774.71 213.23,-766.11"/>
<polygon fill="black" stroke="black" points="216.72,-766.2 213.51,-756.1 209.73,-766 216.72,-766.2"/>
</g>
<!-- field&#45;&gt;zarith -->
<g id="edge42" class="edge">
<title>field&#45;&gt;zarith</title>
<path fill="none" stroke="black" d="M185.65,-935.7C189.64,-927.73 194.45,-918.1 198.87,-909.26"/>
<polygon fill="black" stroke="black" points="202.11,-910.61 203.45,-900.1 195.85,-907.48 202.11,-910.61"/>
</g>
<!-- field&#45;&gt;qarith&#45;base -->
<g id="edge43" class="edge">
<title>field&#45;&gt;qarith&#45;base</title>
<path fill="none" stroke="black" d="M161.67,-935.7C154.24,-927.3 145.18,-917.07 137.02,-907.86"/>
<polygon fill="black" stroke="black" points="139.4,-905.27 130.15,-900.1 134.16,-909.91 139.4,-905.27"/>
</g>
<!-- positive -->
<g id="node20" class="node">
<title>positive</title>
<g id="a_node20"><a xlink:href="#positive" xlink:title="positive">
<polygon fill="#ff540a" stroke="#ff540a" points="254.5,-468 181.5,-468 181.5,-432 254.5,-432 254.5,-468"/>
<text text-anchor="middle" x="218" y="-446.3" font-family="Times,serif" font-size="14.00">positive</text>
</a>
</g>
</g>
<!-- positive&#45;&gt;arith&#45;base -->
<g id="edge15" class="edge">
<title>positive&#45;&gt;arith&#45;base</title>
<path fill="none" stroke="black" d="M221.71,-431.7C223.36,-423.98 225.35,-414.71 227.19,-406.11"/>
<polygon fill="black" stroke="black" points="230.66,-406.62 229.33,-396.1 223.82,-405.15 230.66,-406.62"/>
</g>
<!-- narith&#45;&gt;ring -->
<g id="edge16" class="edge">
<title>narith&#45;&gt;ring</title>
<path fill="none" stroke="black" d="M214.99,-719.7C215.43,-711.98 215.96,-702.71 216.45,-694.11"/>
<polygon fill="black" stroke="black" points="219.95,-694.29 217.02,-684.1 212.96,-693.89 219.95,-694.29"/>
</g>
<!-- ring&#45;&gt;lists -->
<g id="edge17" class="edge">
<title>ring&#45;&gt;lists</title>
<path fill="none" stroke="black" d="M240.99,-647.7C252.81,-638.8 267.39,-627.82 280.18,-618.2"/>
<polygon fill="black" stroke="black" points="282.39,-620.91 288.28,-612.1 278.18,-615.32 282.39,-620.91"/>
</g>
<!-- zarith&#45;base -->
<g id="node24" class="node">
<title>zarith&#45;base</title>
<g id="a_node24"><a xlink:href="#zarith-base" xlink:title="zarith&#45;base">
<polygon fill="#ff540a" stroke="#ff540a" points="266,-612 170,-612 170,-576 266,-576 266,-612"/>
<text text-anchor="middle" x="218" y="-590.3" font-family="Times,serif" font-size="14.00">zarith&#45;base</text>
</a>
</g>
</g>
<!-- ring&#45;&gt;zarith&#45;base -->
<g id="edge18" class="edge">
<title>ring&#45;&gt;zarith&#45;base</title>
<path fill="none" stroke="black" d="M218,-647.7C218,-639.98 218,-630.71 218,-622.11"/>
<polygon fill="black" stroke="black" points="221.5,-622.1 218,-612.1 214.5,-622.1 221.5,-622.1"/>
</g>
<!-- lists&#45;&gt;arith&#45;base -->
<g id="edge22" class="edge">
<title>lists&#45;&gt;arith&#45;base</title>
<path fill="none" stroke="black" d="M307.18,-575.64C300.3,-545.63 284.48,-482.45 263,-432 259.11,-422.86 254.03,-413.28 249.16,-404.82"/>
<polygon fill="black" stroke="black" points="252.13,-402.98 244.02,-396.16 246.11,-406.55 252.13,-402.98"/>
</g>
<!-- narith&#45;base -->
<g id="node25" class="node">
<title>narith&#45;base</title>
<g id="a_node25"><a xlink:href="#narith-base" xlink:title="narith&#45;base">
<polygon fill="#ff540a" stroke="#ff540a" points="267,-540 169,-540 169,-504 267,-504 267,-540"/>
<text text-anchor="middle" x="218" y="-518.3" font-family="Times,serif" font-size="14.00">narith&#45;base</text>
</a>
</g>
</g>
<!-- zarith&#45;base&#45;&gt;narith&#45;base -->
<g id="edge23" class="edge">
<title>zarith&#45;base&#45;&gt;narith&#45;base</title>
<path fill="none" stroke="black" d="M218,-575.7C218,-567.98 218,-558.71 218,-550.11"/>
<polygon fill="black" stroke="black" points="221.5,-550.1 218,-540.1 214.5,-550.1 221.5,-550.1"/>
</g>
<!-- narith&#45;base&#45;&gt;positive -->
<g id="edge21" class="edge">
<title>narith&#45;base&#45;&gt;positive</title>
<path fill="none" stroke="black" d="M218,-503.7C218,-495.98 218,-486.71 218,-478.11"/>
<polygon fill="black" stroke="black" points="221.5,-478.1 218,-468.1 214.5,-478.1 221.5,-478.1"/>
</g>
<!-- primitive&#45;int -->
<g id="node26" class="node">
<title>primitive&#45;int</title>
<g id="a_node26"><a xlink:href="#primitive-int" xlink:title="primitive&#45;int">
<polygon fill="#ff540a" stroke="#ff540a" points="627,-1044 521,-1044 521,-1008 627,-1008 627,-1044"/>
<text text-anchor="middle" x="574" y="-1022.3" font-family="Times,serif" font-size="14.00">primitive&#45;int</text>
</a>
</g>
</g>
<!-- primitive&#45;int&#45;&gt;zarith -->
<g id="edge24" class="edge">
<title>primitive&#45;int&#45;&gt;zarith</title>
<path fill="none" stroke="black" d="M520.76,-1014.2C450.83,-999.93 335.81,-976.09 327,-972 292.34,-955.89 258.45,-927.71 236.54,-907.36"/>
<polygon fill="black" stroke="black" points="238.71,-904.59 229.04,-900.26 233.9,-909.68 238.71,-904.59"/>
</g>
<!-- unicode -->
<g id="node27" class="node">
<title>unicode</title>
<g id="a_node27"><a xlink:href="#unicode" xlink:title="unicode">
<polygon fill="#ff540a" stroke="#ff540a" points="610,-972 538,-972 538,-936 610,-936 610,-972"/>
<text text-anchor="middle" x="574" y="-950.3" font-family="Times,serif" font-size="14.00">unicode</text>
</a>
</g>
</g>
<!-- primitive&#45;int&#45;&gt;unicode -->
<g id="edge25" class="edge">
<title>primitive&#45;int&#45;&gt;unicode</title>
<path fill="none" stroke="black" d="M574,-1007.7C574,-999.98 574,-990.71 574,-982.11"/>
<polygon fill="black" stroke="black" points="577.5,-982.1 574,-972.1 570.5,-982.1 577.5,-982.1"/>
</g>
<!-- fmaps&#45;fsets&#45;msets -->
<g id="node28" class="node">
<title>fmaps&#45;fsets&#45;msets</title>
<g id="a_node28"><a xlink:href="#fmaps-fsets-msets" xlink:title="fmaps&#45;fsets&#45;msets">
<polygon fill="#ff540a" stroke="#ff540a" points="348,-1116 202,-1116 202,-1080 348,-1080 348,-1116"/>
<text text-anchor="middle" x="275" y="-1094.3" font-family="Times,serif" font-size="14.00">fmaps&#45;fsets&#45;msets</text>
</a>
</g>
</g>
<!-- fmaps&#45;fsets&#45;msets&#45;&gt;zarith -->
<g id="edge28" class="edge">
<title>fmaps&#45;fsets&#45;msets&#45;&gt;zarith</title>
<path fill="none" stroke="black" d="M276.2,-1079.99C277.03,-1061.86 277.07,-1032.47 271,-1008 262.04,-971.86 242.27,-933.6 228.08,-909.08"/>
<polygon fill="black" stroke="black" points="231.04,-907.22 222.95,-900.38 225.01,-910.77 231.04,-907.22"/>
</g>
<!-- orders&#45;ex -->
<g id="node29" class="node">
<title>orders&#45;ex</title>
<g id="a_node29"><a xlink:href="#orders-ex" xlink:title="orders&#45;ex">
<polygon fill="#ff540a" stroke="#ff540a" points="478,-1044 394,-1044 394,-1008 478,-1008 478,-1044"/>
<text text-anchor="middle" x="436" y="-1022.3" font-family="Times,serif" font-size="14.00">orders&#45;ex</text>
</a>
</g>
</g>
<!-- fmaps&#45;fsets&#45;msets&#45;&gt;orders&#45;ex -->
<g id="edge29" class="edge">
<title>fmaps&#45;fsets&#45;msets&#45;&gt;orders&#45;ex</title>
<path fill="none" stroke="black" d="M314.39,-1079.88C336.39,-1070.31 364.01,-1058.3 387.36,-1048.15"/>
<polygon fill="black" stroke="black" points="388.97,-1051.27 396.74,-1044.07 386.18,-1044.85 388.97,-1051.27"/>
</g>
<!-- orders&#45;ex&#45;&gt;strings -->
<g id="edge30" class="edge">
<title>orders&#45;ex&#45;&gt;strings</title>
<path fill="none" stroke="black" d="M449.81,-1007.53C471.85,-977.38 510.26,-913.97 487,-864 481.57,-852.34 472.18,-842.34 462.28,-834.26"/>
<polygon fill="black" stroke="black" points="464.38,-831.45 454.3,-828.2 460.15,-837.03 464.38,-831.45"/>
</g>
<!-- sorting -->
<g id="node30" class="node">
<title>sorting</title>
<g id="a_node30"><a xlink:href="#sorting" xlink:title="sorting">
<polygon fill="#ff540a" stroke="#ff540a" points="404,-972 336,-972 336,-936 404,-936 404,-972"/>
<text text-anchor="middle" x="370" y="-950.3" font-family="Times,serif" font-size="14.00">sorting</text>
</a>
</g>
</g>
<!-- orders&#45;ex&#45;&gt;sorting -->
<g id="edge31" class="edge">
<title>orders&#45;ex&#45;&gt;sorting</title>
<path fill="none" stroke="black" d="M419.69,-1007.7C411.69,-999.22 401.93,-988.86 393.18,-979.58"/>
<polygon fill="black" stroke="black" points="395.53,-976.98 386.13,-972.1 390.44,-981.78 395.53,-976.98"/>
</g>
<!-- sorting&#45;&gt;vectors -->
<g id="edge35" class="edge">
<title>sorting&#45;&gt;vectors</title>
<path fill="none" stroke="black" d="M388.04,-935.7C397.06,-927.05 408.12,-916.45 417.94,-907.03"/>
<polygon fill="black" stroke="black" points="420.37,-909.55 425.16,-900.1 415.52,-904.5 420.37,-909.55"/>
</g>
<!-- sorting&#45;&gt;lia -->
<g id="edge33" class="edge">
<title>sorting&#45;&gt;lia</title>
<path fill="none" stroke="black" d="M350.94,-935.87C322.95,-910.71 270.59,-863.65 238.75,-835.04"/>
<polygon fill="black" stroke="black" points="240.9,-832.27 231.13,-828.19 236.22,-837.48 240.9,-832.27"/>
</g>
<!-- sets -->
<g id="node31" class="node">
<title>sets</title>
<g id="a_node31"><a xlink:href="#sets" xlink:title="sets">
<polygon fill="#ff540a" stroke="#ff540a" points="390,-900 336,-900 336,-864 390,-864 390,-900"/>
<text text-anchor="middle" x="363" y="-878.3" font-family="Times,serif" font-size="14.00">sets</text>
</a>
</g>
</g>
<!-- sorting&#45;&gt;sets -->
<g id="edge34" class="edge">
<title>sorting&#45;&gt;sets</title>
<path fill="none" stroke="black" d="M368.27,-935.7C367.5,-927.98 366.57,-918.71 365.71,-910.11"/>
<polygon fill="black" stroke="black" points="369.19,-909.71 364.71,-900.1 362.22,-910.4 369.19,-909.71"/>
</g>
<!-- sets&#45;&gt;classical&#45;logic -->
<g id="edge32" class="edge">
<title>sets&#45;&gt;classical&#45;logic</title>
<path fill="none" stroke="black" d="M351.13,-863.7C345.5,-855.47 338.65,-845.48 332.43,-836.42"/>
<polygon fill="black" stroke="black" points="335.27,-834.37 326.73,-828.1 329.5,-838.33 335.27,-834.37"/>
</g>
<!-- primitive&#45;floats -->
<g id="node32" class="node">
<title>primitive&#45;floats</title>
<g id="a_node32"><a xlink:href="#primitive-floats" xlink:title="primitive&#45;floats">
<polygon fill="#ff540a" stroke="#ff540a" points="638.5,-1116 513.5,-1116 513.5,-1080 638.5,-1080 638.5,-1116"/>
<text text-anchor="middle" x="576" y="-1094.3" font-family="Times,serif" font-size="14.00">primitive&#45;floats</text>
</a>
</g>
</g>
<!-- primitive&#45;floats&#45;&gt;primitive&#45;int -->
<g id="edge36" class="edge">
<title>primitive&#45;floats&#45;&gt;primitive&#45;int</title>
<path fill="none" stroke="black" d="M575.51,-1079.7C575.29,-1071.98 575.02,-1062.71 574.77,-1054.11"/>
<polygon fill="black" stroke="black" points="578.27,-1054 574.49,-1044.1 571.28,-1054.2 578.27,-1054"/>
</g>
<!-- wellfounded -->
<g id="node33" class="node">
<title>wellfounded</title>
<g id="a_node33"><a xlink:href="#wellfounded" xlink:title="wellfounded">
<polygon fill="#ff540a" stroke="#ff540a" points="709,-1188 605,-1188 605,-1152 709,-1152 709,-1188"/>
<text text-anchor="middle" x="657" y="-1166.3" font-family="Times,serif" font-size="14.00">wellfounded</text>
</a>
</g>
</g>
<!-- wellfounded&#45;&gt;lists -->
<g id="edge37" class="edge">
<title>wellfounded&#45;&gt;lists</title>
<path fill="none" stroke="black" d="M709.15,-1160.67C737.34,-1153.49 770.48,-1140.25 791,-1116 817.13,-1085.12 810,-1067.45 810,-1027 810,-1027 810,-1027 810,-737 810,-641.03 464.24,-606.44 348.35,-597.54"/>
<polygon fill="black" stroke="black" points="348.42,-594.04 338.18,-596.78 347.89,-601.02 348.42,-594.04"/>
</g>
<!-- primitive&#45;string -->
<g id="node34" class="node">
<title>primitive&#45;string</title>
<g id="a_node34"><a xlink:href="#primitive-string" xlink:title="primitive&#45;string">
<polygon fill="#ff540a" stroke="#ff540a" points="495.5,-1116 366.5,-1116 366.5,-1080 495.5,-1080 495.5,-1116"/>
<text text-anchor="middle" x="431" y="-1094.3" font-family="Times,serif" font-size="14.00">primitive&#45;string</text>
</a>
</g>
</g>
<!-- primitive&#45;string&#45;&gt;primitive&#45;int -->
<g id="edge39" class="edge">
<title>primitive&#45;string&#45;&gt;primitive&#45;int</title>
<path fill="none" stroke="black" d="M465.98,-1079.88C485.2,-1070.47 509.23,-1058.71 529.74,-1048.67"/>
<polygon fill="black" stroke="black" points="531.44,-1051.73 538.88,-1044.19 528.36,-1045.44 531.44,-1051.73"/>
</g>
<!-- primitive&#45;string&#45;&gt;orders&#45;ex -->
<g id="edge40" class="edge">
<title>primitive&#45;string&#45;&gt;orders&#45;ex</title>
<path fill="none" stroke="black" d="M432.24,-1079.7C432.79,-1071.98 433.45,-1062.71 434.06,-1054.11"/>
<polygon fill="black" stroke="black" points="437.56,-1054.33 434.78,-1044.1 430.57,-1053.83 437.56,-1054.33"/>
</g>
<!-- qarith&#45;base&#45;&gt;ring -->
<g id="edge45" class="edge">
<title>qarith&#45;base&#45;&gt;ring</title>
<path fill="none" stroke="black" d="M119.43,-863.75C127.65,-833.38 147.03,-768.95 175,-720 180.61,-710.18 188.02,-700.31 195.1,-691.79"/>
<polygon fill="black" stroke="black" points="197.86,-693.96 201.73,-684.09 192.55,-689.39 197.86,-693.96"/>
</g>
<!-- extraction -->
<g id="node36" class="node">
<title>extraction</title>
<g id="a_node36"><a xlink:href="#extraction" xlink:title="extraction">
<polygon fill="#ff540a" stroke="#ff540a" points="530.5,-1188 441.5,-1188 441.5,-1152 530.5,-1152 530.5,-1188"/>
<text text-anchor="middle" x="486" y="-1166.3" font-family="Times,serif" font-size="14.00">extraction</text>
</a>
</g>
</g>
<!-- extraction&#45;&gt;primitive&#45;floats -->
<g id="edge50" class="edge">
<title>extraction&#45;&gt;primitive&#45;floats</title>
<path fill="none" stroke="black" d="M508.25,-1151.7C519.58,-1142.88 533.53,-1132.03 545.82,-1122.47"/>
<polygon fill="black" stroke="black" points="548.26,-1125.01 554.01,-1116.1 543.97,-1119.48 548.26,-1125.01"/>
</g>
<!-- extraction&#45;&gt;primitive&#45;string -->
<g id="edge49" class="edge">
<title>extraction&#45;&gt;primitive&#45;string</title>
<path fill="none" stroke="black" d="M472.4,-1151.7C465.88,-1143.39 457.93,-1133.28 450.75,-1124.14"/>
<polygon fill="black" stroke="black" points="453.37,-1121.81 444.44,-1116.1 447.87,-1126.13 453.37,-1121.81"/>
</g>
<!-- primitive&#45;array -->
<g id="node37" class="node">
<title>primitive&#45;array</title>
<g id="a_node37"><a xlink:href="#primitive-array" xlink:title="primitive&#45;array">
<polygon fill="#ff540a" stroke="#ff540a" points="781.5,-1116 656.5,-1116 656.5,-1080 781.5,-1080 781.5,-1116"/>
<text text-anchor="middle" x="719" y="-1094.3" font-family="Times,serif" font-size="14.00">primitive&#45;array</text>
</a>
</g>
</g>
<!-- extraction&#45;&gt;primitive&#45;array -->
<g id="edge51" class="edge">
<title>extraction&#45;&gt;primitive&#45;array</title>
<path fill="none" stroke="black" d="M530.65,-1155.59C565.12,-1145.23 613.37,-1130.73 652.4,-1119.01"/>
<polygon fill="black" stroke="black" points="653.54,-1122.32 662.11,-1116.09 651.53,-1115.62 653.54,-1122.32"/>
</g>
<!-- primitive&#45;array&#45;&gt;primitive&#45;int -->
<g id="edge52" class="edge">
<title>primitive&#45;array&#45;&gt;primitive&#45;int</title>
<path fill="none" stroke="black" d="M683.53,-1079.88C663.88,-1070.39 639.28,-1058.51 618.37,-1048.42"/>
<polygon fill="black" stroke="black" points="619.88,-1045.26 609.36,-1044.07 616.84,-1051.57 619.88,-1045.26"/>
</g>
<!-- streams -->
<g id="node38" class="node">
<title>streams</title>
<g id="a_node38"><a xlink:href="#streams" xlink:title="streams">
<polygon fill="#ff540a" stroke="#ff540a" points="877,-540 803,-540 803,-504 877,-504 877,-540"/>
<text text-anchor="middle" x="840" y="-518.3" font-family="Times,serif" font-size="14.00">streams</text>
</a>
</g>
</g>
<!-- streams&#45;&gt;logic -->
<g id="edge53" class="edge">
<title>streams&#45;&gt;logic</title>
<path fill="none" stroke="black" d="M838.62,-503.96C836.58,-477.32 833,-424.17 833,-379 833,-379 833,-379 833,-161 833,-119.29 815.8,-73.54 803.16,-45.54"/>
<polygon fill="black" stroke="black" points="806.3,-44.01 798.91,-36.42 799.95,-46.96 806.3,-44.01"/>
</g>
<!-- funind -->
<g id="node39" class="node">
<title>funind</title>
<g id="a_node39"><a xlink:href="#funind" xlink:title="funind">
<polygon fill="#ff540a" stroke="#ff540a" points="100,-468 38,-468 38,-432 100,-432 100,-468"/>
<text text-anchor="middle" x="69" y="-446.3" font-family="Times,serif" font-size="14.00">funind</text>
</a>
</g>
</g>
<!-- funind&#45;&gt;arith&#45;base -->
<g id="edge54" class="edge">
<title>funind&#45;&gt;arith&#45;base</title>
<path fill="none" stroke="black" d="M100.23,-435.67C123.84,-425.59 156.71,-411.56 183.84,-399.98"/>
<polygon fill="black" stroke="black" points="185.34,-403.15 193.17,-396 182.59,-396.71 185.34,-403.15"/>
</g>
<!-- rtauto -->
<g id="node40" class="node">
<title>rtauto</title>
<g id="a_node40"><a xlink:href="#rtauto" xlink:title="rtauto">
<polygon fill="#ff540a" stroke="#ff540a" points="171.5,-684 110.5,-684 110.5,-648 171.5,-648 171.5,-684"/>
<text text-anchor="middle" x="141" y="-662.3" font-family="Times,serif" font-size="14.00">rtauto</text>
</a>
</g>
</g>
<!-- rtauto&#45;&gt;positive -->
<g id="edge55" class="edge">
<title>rtauto&#45;&gt;positive</title>
<path fill="none" stroke="black" d="M139.27,-647.9C136.95,-617.22 135.59,-551.58 160,-504 165.74,-492.81 174.87,-482.81 184.2,-474.59"/>
<polygon fill="black" stroke="black" points="186.54,-477.19 192.01,-468.11 182.08,-471.8 186.54,-477.19"/>
</g>
<!-- rtauto&#45;&gt;lists -->
<g id="edge56" class="edge">
<title>rtauto&#45;&gt;lists</title>
<path fill="none" stroke="black" d="M171.86,-652.11C175.28,-650.71 178.71,-649.32 182,-648 220.41,-632.61 232.66,-629.81 274.56,-612.05"/>
<polygon fill="black" stroke="black" points="276.15,-615.17 283.97,-608.02 273.4,-608.74 276.15,-615.17"/>
</g>
<!-- compat -->
<g id="node41" class="node">
<title>compat</title>
<g id="a_node41"><a xlink:href="#compat" xlink:title="compat">
<polygon fill="#ff540a" stroke="#ff540a" points="339.5,-1260 270.5,-1260 270.5,-1224 339.5,-1224 339.5,-1260"/>
<text text-anchor="middle" x="305" y="-1238.3" font-family="Times,serif" font-size="14.00">compat</text>
</a>
</g>
</g>
<!-- compat&#45;&gt;reals -->
<g id="edge57" class="edge">
<title>compat&#45;&gt;reals</title>
<path fill="none" stroke="black" d="M287.15,-1223.87C261.03,-1198.82 212.29,-1152.05 182.44,-1123.41"/>
<polygon fill="black" stroke="black" points="184.55,-1120.59 174.92,-1116.19 179.71,-1125.64 184.55,-1120.59"/>
</g>
<!-- compat&#45;&gt;fmaps&#45;fsets&#45;msets -->
<g id="edge58" class="edge">
<title>compat&#45;&gt;fmaps&#45;fsets&#45;msets</title>
<path fill="none" stroke="black" d="M301.38,-1223.87C296.25,-1199.56 286.79,-1154.82 280.71,-1126.01"/>
<polygon fill="black" stroke="black" points="284.12,-1125.25 278.63,-1116.19 277.27,-1126.7 284.12,-1125.25"/>
</g>
<!-- compat&#45;&gt;wellfounded -->
<g id="edge59" class="edge">
<title>compat&#45;&gt;wellfounded</title>
<path fill="none" stroke="black" d="M339.71,-1234.1C398.94,-1222.32 520.27,-1198.19 594.54,-1183.42"/>
<polygon fill="black" stroke="black" points="595.58,-1186.78 604.7,-1181.4 594.21,-1179.92 595.58,-1186.78"/>
</g>
<!-- compat&#45;&gt;primitive&#45;string -->
<g id="edge60" class="edge">
<title>compat&#45;&gt;primitive&#45;string</title>
<path fill="none" stroke="black" d="M320.2,-1223.87C342.34,-1198.92 383.57,-1152.45 409.02,-1123.77"/>
<polygon fill="black" stroke="black" points="411.73,-1125.99 415.75,-1116.19 406.49,-1121.35 411.73,-1125.99"/>
</g>
<!-- compat&#45;&gt;extraction -->
<g id="edge61" class="edge">
<title>compat&#45;&gt;extraction</title>
<path fill="none" stroke="black" d="M339.9,-1227.5C366.13,-1217.36 402.54,-1203.28 432.45,-1191.71"/>
<polygon fill="black" stroke="black" points="433.85,-1194.92 441.91,-1188.05 431.32,-1188.39 433.85,-1194.92"/>
</g>
<!-- compat&#45;&gt;streams -->
<g id="edge62" class="edge">
<title>compat&#45;&gt;streams</title>
<path fill="none" stroke="black" d="M339.79,-1239.43C459.64,-1233.11 848,-1204.48 848,-1099 848,-1099 848,-1099 848,-665 848,-624.93 844.79,-578.61 842.43,-550.05"/>
<polygon fill="black" stroke="black" points="845.91,-549.7 841.58,-540.03 838.94,-550.29 845.91,-549.7"/>
</g>
<!-- compat&#45;&gt;funind -->
<g id="edge63" class="edge">
<title>compat&#45;&gt;funind</title>
<path fill="none" stroke="black" d="M270.28,-1237.17C209.63,-1229.93 87.55,-1212.69 53,-1188 15.54,-1161.23 0,-1145.04 0,-1099 0,-1099 0,-1099 0,-593 0,-548.48 27.78,-503.29 48.08,-476.2"/>
<polygon fill="black" stroke="black" points="51.02,-478.12 54.37,-468.07 45.48,-473.84 51.02,-478.12"/>
</g>
<!-- compat&#45;&gt;rtauto -->
<g id="edge64" class="edge">
<title>compat&#45;&gt;rtauto</title>
<path fill="none" stroke="black" d="M270.37,-1238.47C198.12,-1231.12 38,-1203.09 38,-1099 38,-1099 38,-1099 38,-809 38,-759.66 79.26,-715.89 109.55,-690.41"/>
<polygon fill="black" stroke="black" points="111.84,-693.06 117.37,-684.03 107.41,-687.64 111.84,-693.06"/>
</g>
<!-- all -->
<g id="node42" class="node">
<title>all</title>
<g id="a_node42"><a xlink:href="#all" xlink:title="all">
<polygon fill="#ff540a" stroke="#ff540a" points="332,-1332 278,-1332 278,-1296 332,-1296 332,-1332"/>
<text text-anchor="middle" x="305" y="-1310.3" font-family="Times,serif" font-size="14.00">all</text>
</a>
</g>
</g>
<!-- all&#45;&gt;compat -->
<g id="edge65" class="edge">
<title>all&#45;&gt;compat</title>
<path fill="none" stroke="black" d="M305,-1295.7C305,-1287.98 305,-1278.71 305,-1270.11"/>
<polygon fill="black" stroke="black" points="308.5,-1270.1 305,-1260.1 301.5,-1270.1 308.5,-1270.1"/>
</g>
</g>
</svg>
