<?xml version="1.0" encoding="UTF-8" standalone="no"?>
<!DOCTYPE svg PUBLIC "-//W3C//DTD SVG 1.1//EN"
 "http://www.w3.org/Graphics/SVG/1.1/DTD/svg11.dtd">
<!-- Generated by graphviz version 2.43.0 (0)
 -->
<!-- Title: stdlib_deps Pages: 1 -->
<svg width="100%"
 viewBox="0.00 0.00 1083.00 1340.00" xmlns="http://www.w3.org/2000/svg" xmlns:xlink="http://www.w3.org/1999/xlink">
<g id="graph0" class="graph" transform="scale(1 1) rotate(0) translate(4 1336)">
<title>stdlib_deps</title>
<polygon fill="white" stroke="transparent" points="-4,4 -4,-1336 1079,-1336 1079,4 -4,4"/>
<!-- bool -->
<g id="node1" class="node">
<title>bool</title>
<g id="a_node1"><a xlink:href="#bool" xlink:title="bool">
<polygon fill="#ff540a" stroke="#ff540a" points="786,-252 732,-252 732,-216 786,-216 786,-252"/>
<text text-anchor="middle" x="759" y="-230.3" font-family="Times,serif" font-size="14.00">bool</text>
</a>
</g>
</g>
<!-- classes -->
<g id="node2" class="node">
<title>classes</title>
<g id="a_node2"><a xlink:href="#classes" xlink:title="classes">
<polygon fill="#ff540a" stroke="#ff540a" points="870,-180 802,-180 802,-144 870,-144 870,-180"/>
<text text-anchor="middle" x="836" y="-158.3" font-family="Times,serif" font-size="14.00">classes</text>
</a>
</g>
</g>
<!-- bool&#45;&gt;classes -->
<g id="edge1" class="edge">
<title>bool&#45;&gt;classes</title>
<path fill="none" stroke="black" d="M778.03,-215.7C787.54,-207.05 799.21,-196.45 809.57,-187.03"/>
<polygon fill="black" stroke="black" points="812.14,-189.42 817.19,-180.1 807.43,-184.24 812.14,-189.42"/>
</g>
<!-- program -->
<g id="node3" class="node">
<title>program</title>
<g id="a_node3"><a xlink:href="#program" xlink:title="program">
<polygon fill="#ff540a" stroke="#ff540a" points="972,-108 894,-108 894,-72 972,-72 972,-108"/>
<text text-anchor="middle" x="933" y="-86.3" font-family="Times,serif" font-size="14.00">program</text>
</a>
</g>
</g>
<!-- classes&#45;&gt;program -->
<g id="edge2" class="edge">
<title>classes&#45;&gt;program</title>
<path fill="none" stroke="black" d="M859.98,-143.7C872.31,-134.8 887.52,-123.82 900.85,-114.2"/>
<polygon fill="black" stroke="black" points="903.24,-116.79 909.3,-108.1 899.14,-111.12 903.24,-116.79"/>
</g>
<!-- relations -->
<g id="node4" class="node">
<title>relations</title>
<g id="a_node4"><a xlink:href="#relations" xlink:title="relations">
<polygon fill="#ff540a" stroke="#ff540a" points="876,-108 796,-108 796,-72 876,-72 876,-108"/>
<text text-anchor="middle" x="836" y="-86.3" font-family="Times,serif" font-size="14.00">relations</text>
</a>
</g>
</g>
<!-- classes&#45;&gt;relations -->
<g id="edge3" class="edge">
<title>classes&#45;&gt;relations</title>
<path fill="none" stroke="black" d="M836,-143.7C836,-135.98 836,-126.71 836,-118.11"/>
<polygon fill="black" stroke="black" points="839.5,-118.1 836,-108.1 832.5,-118.1 839.5,-118.1"/>
</g>
<!-- corelib&#45;wrapper -->
<g id="node5" class="node">
<title>corelib&#45;wrapper</title>
<g id="a_node5"><a xlink:href="#corelib-wrapper" xlink:title="corelib&#45;wrapper">
<polygon fill="#ff540a" stroke="#ff540a" points="928,-36 798,-36 798,0 928,0 928,-36"/>
<text text-anchor="middle" x="863" y="-14.3" font-family="Times,serif" font-size="14.00">corelib&#45;wrapper</text>
</a>
</g>
</g>
<!-- program&#45;&gt;corelib&#45;wrapper -->
<g id="edge4" class="edge">
<title>program&#45;&gt;corelib&#45;wrapper</title>
<path fill="none" stroke="black" d="M915.7,-71.7C907.14,-63.14 896.66,-52.66 887.3,-43.3"/>
<polygon fill="black" stroke="black" points="889.65,-40.7 880.1,-36.1 884.7,-45.65 889.65,-40.7"/>
</g>
<!-- logic -->
<g id="node6" class="node">
<title>logic</title>
<g id="a_node6"><a xlink:href="#logic" xlink:title="logic">
<polygon fill="#ff540a" stroke="#ff540a" points="1013,-36 959,-36 959,0 1013,0 1013,-36"/>
<text text-anchor="middle" x="986" y="-14.3" font-family="Times,serif" font-size="14.00">logic</text>
</a>
</g>
</g>
<!-- program&#45;&gt;logic -->
<g id="edge5" class="edge">
<title>program&#45;&gt;logic</title>
<path fill="none" stroke="black" d="M946.1,-71.7C952.39,-63.39 960.05,-53.28 966.96,-44.14"/>
<polygon fill="black" stroke="black" points="969.8,-46.19 973.05,-36.1 964.22,-41.96 969.8,-46.19"/>
</g>
<!-- relations&#45;&gt;corelib&#45;wrapper -->
<g id="edge36" class="edge">
<title>relations&#45;&gt;corelib&#45;wrapper</title>
<path fill="none" stroke="black" d="M842.67,-71.7C845.71,-63.81 849.38,-54.3 852.76,-45.55"/>
<polygon fill="black" stroke="black" points="856.07,-46.69 856.4,-36.1 849.54,-44.17 856.07,-46.69"/>
</g>
<!-- strings -->
<g id="node7" class="node">
<title>strings</title>
<g id="a_node7"><a xlink:href="#strings" xlink:title="strings">
<polygon fill="#ff540a" stroke="#ff540a" points="469.5,-900 402.5,-900 402.5,-864 469.5,-864 469.5,-900"/>
<text text-anchor="middle" x="436" y="-878.3" font-family="Times,serif" font-size="14.00">strings</text>
</a>
</g>
</g>
<!-- arith -->
<g id="node8" class="node">
<title>arith</title>
<g id="a_node8"><a xlink:href="#arith" xlink:title="arith">
<polygon fill="#ff540a" stroke="#ff540a" points="397,-756 343,-756 343,-720 397,-720 397,-756"/>
<text text-anchor="middle" x="370" y="-734.3" font-family="Times,serif" font-size="14.00">arith</text>
</a>
</g>
</g>
<!-- strings&#45;&gt;arith -->
<g id="edge6" class="edge">
<title>strings&#45;&gt;arith</title>
<path fill="none" stroke="black" d="M428.04,-863.87C416.64,-839.35 395.58,-794.03 382.2,-765.26"/>
<polygon fill="black" stroke="black" points="385.38,-763.78 377.99,-756.19 379.03,-766.73 385.38,-763.78"/>
</g>
<!-- ring -->
<g id="node22" class="node">
<title>ring</title>
<g id="a_node22"><a xlink:href="#ring" xlink:title="ring">
<polygon fill="#ff540a" stroke="#ff540a" points="397,-684 343,-684 343,-648 397,-648 397,-684"/>
<text text-anchor="middle" x="370" y="-662.3" font-family="Times,serif" font-size="14.00">ring</text>
</a>
</g>
</g>
<!-- arith&#45;&gt;ring -->
<g id="edge19" class="edge">
<title>arith&#45;&gt;ring</title>
<path fill="none" stroke="black" d="M370,-719.7C370,-711.98 370,-702.71 370,-694.11"/>
<polygon fill="black" stroke="black" points="373.5,-694.1 370,-684.1 366.5,-694.1 373.5,-694.1"/>
</g>
<!-- reals -->
<g id="node9" class="node">
<title>reals</title>
<g id="a_node9"><a xlink:href="#reals" xlink:title="reals">
<polygon fill="#ff540a" stroke="#ff540a" points="205,-1188 151,-1188 151,-1152 205,-1152 205,-1188"/>
<text text-anchor="middle" x="178" y="-1166.3" font-family="Times,serif" font-size="14.00">reals</text>
</a>
</g>
</g>
<!-- qarith -->
<g id="node10" class="node">
<title>qarith</title>
<g id="a_node10"><a xlink:href="#qarith" xlink:title="qarith">
<polygon fill="#ff540a" stroke="#ff540a" points="237,-1116 177,-1116 177,-1080 237,-1080 237,-1116"/>
<text text-anchor="middle" x="207" y="-1094.3" font-family="Times,serif" font-size="14.00">qarith</text>
</a>
</g>
</g>
<!-- reals&#45;&gt;qarith -->
<g id="edge7" class="edge">
<title>reals&#45;&gt;qarith</title>
<path fill="none" stroke="black" d="M185.17,-1151.7C188.43,-1143.81 192.37,-1134.3 196,-1125.55"/>
<polygon fill="black" stroke="black" points="199.32,-1126.68 199.91,-1116.1 192.85,-1124 199.32,-1126.68"/>
</g>
<!-- vectors -->
<g id="node11" class="node">
<title>vectors</title>
<g id="a_node11"><a xlink:href="#vectors" xlink:title="vectors">
<polygon fill="#ff540a" stroke="#ff540a" points="155.5,-900 86.5,-900 86.5,-864 155.5,-864 155.5,-900"/>
<text text-anchor="middle" x="121" y="-878.3" font-family="Times,serif" font-size="14.00">vectors</text>
</a>
</g>
</g>
<!-- reals&#45;&gt;vectors -->
<g id="edge8" class="edge">
<title>reals&#45;&gt;vectors</title>
<path fill="none" stroke="black" d="M150.87,-1159.32C132.03,-1151 108.35,-1136.99 97,-1116 58.95,-1045.63 80.12,-1014.2 97,-936 98.96,-926.92 102.61,-917.52 106.49,-909.2"/>
<polygon fill="black" stroke="black" points="109.73,-910.53 111.05,-900.02 103.46,-907.42 109.73,-910.53"/>
</g>
<!-- lqa -->
<g id="node12" class="node">
<title>lqa</title>
<g id="a_node12"><a xlink:href="#lqa" xlink:title="lqa">
<polygon fill="#ff540a" stroke="#ff540a" points="309,-1116 255,-1116 255,-1080 309,-1080 309,-1116"/>
<text text-anchor="middle" x="282" y="-1094.3" font-family="Times,serif" font-size="14.00">lqa</text>
</a>
</g>
</g>
<!-- reals&#45;&gt;lqa -->
<g id="edge9" class="edge">
<title>reals&#45;&gt;lqa</title>
<path fill="none" stroke="black" d="M203.44,-1151.88C216.79,-1142.89 233.32,-1131.76 247.78,-1122.03"/>
<polygon fill="black" stroke="black" points="250.12,-1124.68 256.46,-1116.19 246.21,-1118.87 250.12,-1124.68"/>
</g>
<!-- classical&#45;logic -->
<g id="node13" class="node">
<title>classical&#45;logic</title>
<g id="a_node13"><a xlink:href="#classical-logic" xlink:title="classical&#45;logic">
<polygon fill="#ff540a" stroke="#ff540a" points="341.5,-828 226.5,-828 226.5,-792 341.5,-792 341.5,-828"/>
<text text-anchor="middle" x="284" y="-806.3" font-family="Times,serif" font-size="14.00">classical&#45;logic</text>
</a>
</g>
</g>
<!-- reals&#45;&gt;classical&#45;logic -->
<g id="edge10" class="edge">
<title>reals&#45;&gt;classical&#45;logic</title>
<path fill="none" stroke="black" d="M167.36,-1151.74C144.25,-1111.84 94.3,-1010.95 130,-936 136.63,-922.08 209.33,-866.48 252.43,-834.31"/>
<polygon fill="black" stroke="black" points="254.69,-836.99 260.62,-828.21 250.51,-831.38 254.69,-836.99"/>
</g>
<!-- nsatz -->
<g id="node14" class="node">
<title>nsatz</title>
<g id="a_node14"><a xlink:href="#nsatz" xlink:title="nsatz">
<polygon fill="#ff540a" stroke="#ff540a" points="215.5,-1044 160.5,-1044 160.5,-1008 215.5,-1008 215.5,-1044"/>
<text text-anchor="middle" x="188" y="-1022.3" font-family="Times,serif" font-size="14.00">nsatz</text>
</a>
</g>
</g>
<!-- reals&#45;&gt;nsatz -->
<g id="edge11" class="edge">
<title>reals&#45;&gt;nsatz</title>
<path fill="none" stroke="black" d="M173.12,-1151.84C168.69,-1133.84 163.48,-1104.78 168,-1080 169.61,-1071.2 172.6,-1061.95 175.79,-1053.7"/>
<polygon fill="black" stroke="black" points="179.12,-1054.79 179.69,-1044.21 172.65,-1052.12 179.12,-1054.79"/>
</g>
<!-- field -->
<g id="node19" class="node">
<title>field</title>
<g id="a_node19"><a xlink:href="#field" xlink:title="field">
<polygon fill="#ff540a" stroke="#ff540a" points="296,-1044 242,-1044 242,-1008 296,-1008 296,-1044"/>
<text text-anchor="middle" x="269" y="-1022.3" font-family="Times,serif" font-size="14.00">field</text>
</a>
</g>
</g>
<!-- qarith&#45;&gt;field -->
<g id="edge14" class="edge">
<title>qarith&#45;&gt;field</title>
<path fill="none" stroke="black" d="M222.33,-1079.7C229.76,-1071.3 238.82,-1061.07 246.98,-1051.86"/>
<polygon fill="black" stroke="black" points="249.84,-1053.91 253.85,-1044.1 244.6,-1049.27 249.84,-1053.91"/>
</g>
<!-- lists -->
<g id="node23" class="node">
<title>lists</title>
<g id="a_node23"><a xlink:href="#lists" xlink:title="lists">
<polygon fill="#ff540a" stroke="#ff540a" points="397,-612 343,-612 343,-576 397,-576 397,-612"/>
<text text-anchor="middle" x="370" y="-590.3" font-family="Times,serif" font-size="14.00">lists</text>
</a>
</g>
</g>
<!-- vectors&#45;&gt;lists -->
<g id="edge39" class="edge">
<title>vectors&#45;&gt;lists</title>
<path fill="none" stroke="black" d="M132.56,-863.89C153.22,-833.74 198.38,-769.64 242,-720 274.65,-682.83 316.22,-643.53 342.98,-619.13"/>
<polygon fill="black" stroke="black" points="345.39,-621.67 350.44,-612.36 340.68,-616.49 345.39,-621.67"/>
</g>
<!-- lqa&#45;&gt;field -->
<g id="edge42" class="edge">
<title>lqa&#45;&gt;field</title>
<path fill="none" stroke="black" d="M278.79,-1079.7C277.35,-1071.98 275.63,-1062.71 274.04,-1054.11"/>
<polygon fill="black" stroke="black" points="277.44,-1053.3 272.18,-1044.1 270.56,-1054.58 277.44,-1053.3"/>
</g>
<!-- classical&#45;logic&#45;&gt;arith -->
<g id="edge44" class="edge">
<title>classical&#45;logic&#45;&gt;arith</title>
<path fill="none" stroke="black" d="M305.26,-791.7C316.09,-782.88 329.42,-772.03 341.16,-762.47"/>
<polygon fill="black" stroke="black" points="343.44,-765.13 348.99,-756.1 339.02,-759.7 343.44,-765.13"/>
</g>
<!-- zarith -->
<g id="node17" class="node">
<title>zarith</title>
<g id="a_node17"><a xlink:href="#zarith" xlink:title="zarith">
<polygon fill="#ff540a" stroke="#ff540a" points="314.5,-972 255.5,-972 255.5,-936 314.5,-936 314.5,-972"/>
<text text-anchor="middle" x="285" y="-950.3" font-family="Times,serif" font-size="14.00">zarith</text>
</a>
</g>
</g>
<!-- nsatz&#45;&gt;zarith -->
<g id="edge45" class="edge">
<title>nsatz&#45;&gt;zarith</title>
<path fill="none" stroke="black" d="M211.98,-1007.7C224.31,-998.8 239.52,-987.82 252.85,-978.2"/>
<polygon fill="black" stroke="black" points="255.24,-980.79 261.3,-972.1 251.14,-975.12 255.24,-980.79"/>
</g>
<!-- qarith&#45;base -->
<g id="node34" class="node">
<title>qarith&#45;base</title>
<g id="a_node34"><a xlink:href="#qarith-base" xlink:title="qarith&#45;base">
<polygon fill="#ff540a" stroke="#ff540a" points="237,-972 139,-972 139,-936 237,-936 237,-972"/>
<text text-anchor="middle" x="188" y="-950.3" font-family="Times,serif" font-size="14.00">qarith&#45;base</text>
</a>
</g>
</g>
<!-- nsatz&#45;&gt;qarith&#45;base -->
<g id="edge46" class="edge">
<title>nsatz&#45;&gt;qarith&#45;base</title>
<path fill="none" stroke="black" d="M188,-1007.7C188,-999.98 188,-990.71 188,-982.11"/>
<polygon fill="black" stroke="black" points="191.5,-982.1 188,-972.1 184.5,-982.1 191.5,-982.1"/>
</g>
<!-- arith&#45;base -->
<g id="node15" class="node">
<title>arith&#45;base</title>
<g id="a_node15"><a xlink:href="#arith-base" xlink:title="arith&#45;base">
<polygon fill="#ff540a" stroke="#ff540a" points="617.5,-396 528.5,-396 528.5,-360 617.5,-360 617.5,-396"/>
<text text-anchor="middle" x="573" y="-374.3" font-family="Times,serif" font-size="14.00">arith&#45;base</text>
</a>
</g>
</g>
<!-- structures -->
<g id="node16" class="node">
<title>structures</title>
<g id="a_node16"><a xlink:href="#structures" xlink:title="structures">
<polygon fill="#ff540a" stroke="#ff540a" points="651.5,-324 560.5,-324 560.5,-288 651.5,-288 651.5,-324"/>
<text text-anchor="middle" x="606" y="-302.3" font-family="Times,serif" font-size="14.00">structures</text>
</a>
</g>
</g>
<!-- arith&#45;base&#45;&gt;structures -->
<g id="edge12" class="edge">
<title>arith&#45;base&#45;&gt;structures</title>
<path fill="none" stroke="black" d="M581.16,-359.7C584.91,-351.73 589.45,-342.1 593.62,-333.26"/>
<polygon fill="black" stroke="black" points="596.84,-334.64 597.94,-324.1 590.51,-331.66 596.84,-334.64"/>
</g>
<!-- structures&#45;&gt;bool -->
<g id="edge20" class="edge">
<title>structures&#45;&gt;bool</title>
<path fill="none" stroke="black" d="M643.43,-287.88C667.48,-276.87 698.58,-262.64 722.46,-251.72"/>
<polygon fill="black" stroke="black" points="723.92,-254.9 731.56,-247.56 721.01,-248.53 723.92,-254.9"/>
</g>
<!-- lia -->
<g id="node18" class="node">
<title>lia</title>
<g id="a_node18"><a xlink:href="#lia" xlink:title="lia">
<polygon fill="#ff540a" stroke="#ff540a" points="312,-900 258,-900 258,-864 312,-864 312,-900"/>
<text text-anchor="middle" x="285" y="-878.3" font-family="Times,serif" font-size="14.00">lia</text>
</a>
</g>
</g>
<!-- zarith&#45;&gt;lia -->
<g id="edge13" class="edge">
<title>zarith&#45;&gt;lia</title>
<path fill="none" stroke="black" d="M285,-935.7C285,-927.98 285,-918.71 285,-910.11"/>
<polygon fill="black" stroke="black" points="288.5,-910.1 285,-900.1 281.5,-910.1 288.5,-910.1"/>
</g>
<!-- lia&#45;&gt;arith -->
<g id="edge25" class="edge">
<title>lia&#45;&gt;arith</title>
<path fill="none" stroke="black" d="M312.1,-865.06C325.46,-855.85 340.66,-843.11 350,-828 361.49,-809.42 366.4,-785.03 368.49,-766.48"/>
<polygon fill="black" stroke="black" points="372,-766.6 369.43,-756.32 365.03,-765.96 372,-766.6"/>
</g>
<!-- field&#45;&gt;zarith -->
<g id="edge40" class="edge">
<title>field&#45;&gt;zarith</title>
<path fill="none" stroke="black" d="M272.96,-1007.7C274.72,-999.98 276.84,-990.71 278.8,-982.11"/>
<polygon fill="black" stroke="black" points="282.27,-982.63 281.09,-972.1 275.45,-981.07 282.27,-982.63"/>
</g>
<!-- field&#45;&gt;qarith&#45;base -->
<g id="edge41" class="edge">
<title>field&#45;&gt;qarith&#45;base</title>
<path fill="none" stroke="black" d="M248.98,-1007.7C238.87,-998.97 226.46,-988.24 215.48,-978.75"/>
<polygon fill="black" stroke="black" points="217.65,-975.99 207.79,-972.1 213.07,-981.29 217.65,-975.99"/>
</g>
<!-- positive -->
<g id="node20" class="node">
<title>positive</title>
<g id="a_node20"><a xlink:href="#positive" xlink:title="positive">
<polygon fill="#ff540a" stroke="#ff540a" points="590.5,-468 517.5,-468 517.5,-432 590.5,-432 590.5,-468"/>
<text text-anchor="middle" x="554" y="-446.3" font-family="Times,serif" font-size="14.00">positive</text>
</a>
</g>
</g>
<!-- positive&#45;&gt;arith&#45;base -->
<g id="edge15" class="edge">
<title>positive&#45;&gt;arith&#45;base</title>
<path fill="none" stroke="black" d="M558.7,-431.7C560.81,-423.9 563.36,-414.51 565.72,-405.83"/>
<polygon fill="black" stroke="black" points="569.12,-406.67 568.36,-396.1 562.36,-404.84 569.12,-406.67"/>
</g>
<!-- narith -->
<g id="node21" class="node">
<title>narith</title>
<g id="a_node21"><a xlink:href="#narith" xlink:title="narith">
<polygon fill="#ff540a" stroke="#ff540a" points="517,-540 457,-540 457,-504 517,-504 517,-540"/>
<text text-anchor="middle" x="487" y="-518.3" font-family="Times,serif" font-size="14.00">narith</text>
</a>
</g>
</g>
<!-- narith&#45;&gt;positive -->
<g id="edge16" class="edge">
<title>narith&#45;&gt;positive</title>
<path fill="none" stroke="black" d="M503.56,-503.7C511.68,-495.22 521.59,-484.86 530.47,-475.58"/>
<polygon fill="black" stroke="black" points="533.24,-477.75 537.63,-468.1 528.19,-472.91 533.24,-477.75"/>
</g>
<!-- ring&#45;&gt;lists -->
<g id="edge17" class="edge">
<title>ring&#45;&gt;lists</title>
<path fill="none" stroke="black" d="M370,-647.7C370,-639.98 370,-630.71 370,-622.11"/>
<polygon fill="black" stroke="black" points="373.5,-622.1 370,-612.1 366.5,-622.1 373.5,-622.1"/>
</g>
<!-- zarith&#45;base -->
<g id="node24" class="node">
<title>zarith&#45;base</title>
<g id="a_node24"><a xlink:href="#zarith-base" xlink:title="zarith&#45;base">
<polygon fill="#ff540a" stroke="#ff540a" points="521,-612 425,-612 425,-576 521,-576 521,-612"/>
<text text-anchor="middle" x="473" y="-590.3" font-family="Times,serif" font-size="14.00">zarith&#45;base</text>
</a>
</g>
</g>
<!-- ring&#45;&gt;zarith&#45;base -->
<g id="edge18" class="edge">
<title>ring&#45;&gt;zarith&#45;base</title>
<path fill="none" stroke="black" d="M395.2,-647.88C408.41,-638.89 424.79,-627.76 439.11,-618.03"/>
<polygon fill="black" stroke="black" points="441.4,-620.71 447.71,-612.19 437.47,-614.92 441.4,-620.71"/>
</g>
<!-- lists&#45;&gt;arith&#45;base -->
<g id="edge21" class="edge">
<title>lists&#45;&gt;arith&#45;base</title>
<path fill="none" stroke="black" d="M383.18,-575.67C406.71,-545.19 458.2,-480.59 508,-432 518.46,-421.79 530.72,-411.44 541.75,-402.62"/>
<polygon fill="black" stroke="black" points="544.2,-405.14 549.9,-396.21 539.87,-399.64 544.2,-405.14"/>
</g>
<!-- zarith&#45;base&#45;&gt;narith -->
<g id="edge22" class="edge">
<title>zarith&#45;base&#45;&gt;narith</title>
<path fill="none" stroke="black" d="M476.46,-575.7C478,-567.98 479.86,-558.71 481.58,-550.11"/>
<polygon fill="black" stroke="black" points="485.05,-550.6 483.58,-540.1 478.19,-549.22 485.05,-550.6"/>
</g>
<!-- primitive&#45;int -->
<g id="node25" class="node">
<title>primitive&#45;int</title>
<g id="a_node25"><a xlink:href="#primitive-int" xlink:title="primitive&#45;int">
<polygon fill="#ff540a" stroke="#ff540a" points="681,-1044 575,-1044 575,-1008 681,-1008 681,-1044"/>
<text text-anchor="middle" x="628" y="-1022.3" font-family="Times,serif" font-size="14.00">primitive&#45;int</text>
</a>
</g>
</g>
<!-- primitive&#45;int&#45;&gt;zarith -->
<g id="edge23" class="edge">
<title>primitive&#45;int&#45;&gt;zarith</title>
<path fill="none" stroke="black" d="M574.94,-1019.63C513.56,-1012.54 409.94,-997.82 324,-972 323.9,-971.97 323.81,-971.94 323.71,-971.91"/>
<polygon fill="black" stroke="black" points="325.13,-968.7 314.54,-968.74 322.84,-975.32 325.13,-968.7"/>
</g>
<!-- unicode -->
<g id="node26" class="node">
<title>unicode</title>
<g id="a_node26"><a xlink:href="#unicode" xlink:title="unicode">
<polygon fill="#ff540a" stroke="#ff540a" points="664,-972 592,-972 592,-936 664,-936 664,-972"/>
<text text-anchor="middle" x="628" y="-950.3" font-family="Times,serif" font-size="14.00">unicode</text>
</a>
</g>
</g>
<!-- primitive&#45;int&#45;&gt;unicode -->
<g id="edge24" class="edge">
<title>primitive&#45;int&#45;&gt;unicode</title>
<path fill="none" stroke="black" d="M628,-1007.7C628,-999.98 628,-990.71 628,-982.11"/>
<polygon fill="black" stroke="black" points="631.5,-982.1 628,-972.1 624.5,-982.1 631.5,-982.1"/>
</g>
<!-- fmaps&#45;fsets&#45;msets -->
<g id="node27" class="node">
<title>fmaps&#45;fsets&#45;msets</title>
<g id="a_node27"><a xlink:href="#fmaps-fsets-msets" xlink:title="fmaps&#45;fsets&#45;msets">
<polygon fill="#ff540a" stroke="#ff540a" points="473,-1116 327,-1116 327,-1080 473,-1080 473,-1116"/>
<text text-anchor="middle" x="400" y="-1094.3" font-family="Times,serif" font-size="14.00">fmaps&#45;fsets&#45;msets</text>
</a>
</g>
</g>
<!-- fmaps&#45;fsets&#45;msets&#45;&gt;zarith -->
<g id="edge26" class="edge">
<title>fmaps&#45;fsets&#45;msets&#45;&gt;zarith</title>
<path fill="none" stroke="black" d="M386.13,-1079.87C366.01,-1055.03 328.61,-1008.85 305.36,-980.14"/>
<polygon fill="black" stroke="black" points="307.93,-977.76 298.92,-972.19 302.49,-982.16 307.93,-977.76"/>
</g>
<!-- orders&#45;ex -->
<g id="node28" class="node">
<title>orders&#45;ex</title>
<g id="a_node28"><a xlink:href="#orders-ex" xlink:title="orders&#45;ex">
<polygon fill="#ff540a" stroke="#ff540a" points="460,-1044 376,-1044 376,-1008 460,-1008 460,-1044"/>
<text text-anchor="middle" x="418" y="-1022.3" font-family="Times,serif" font-size="14.00">orders&#45;ex</text>
</a>
</g>
</g>
<!-- fmaps&#45;fsets&#45;msets&#45;&gt;orders&#45;ex -->
<g id="edge27" class="edge">
<title>fmaps&#45;fsets&#45;msets&#45;&gt;orders&#45;ex</title>
<path fill="none" stroke="black" d="M404.45,-1079.7C406.45,-1071.9 408.87,-1062.51 411.1,-1053.83"/>
<polygon fill="black" stroke="black" points="414.5,-1054.66 413.6,-1044.1 407.72,-1052.92 414.5,-1054.66"/>
</g>
<!-- orders&#45;ex&#45;&gt;strings -->
<g id="edge28" class="edge">
<title>orders&#45;ex&#45;&gt;strings</title>
<path fill="none" stroke="black" d="M420.17,-1007.87C423.24,-983.67 428.87,-939.21 432.53,-910.39"/>
<polygon fill="black" stroke="black" points="436.04,-910.55 433.82,-900.19 429.09,-909.67 436.04,-910.55"/>
</g>
<!-- sorting -->
<g id="node29" class="node">
<title>sorting</title>
<g id="a_node29"><a xlink:href="#sorting" xlink:title="sorting">
<polygon fill="#ff540a" stroke="#ff540a" points="401,-972 333,-972 333,-936 401,-936 401,-972"/>
<text text-anchor="middle" x="367" y="-950.3" font-family="Times,serif" font-size="14.00">sorting</text>
</a>
</g>
</g>
<!-- orders&#45;ex&#45;&gt;sorting -->
<g id="edge29" class="edge">
<title>orders&#45;ex&#45;&gt;sorting</title>
<path fill="none" stroke="black" d="M405.39,-1007.7C399.4,-999.47 392.12,-989.48 385.52,-980.42"/>
<polygon fill="black" stroke="black" points="388.18,-978.13 379.46,-972.1 382.52,-982.25 388.18,-978.13"/>
</g>
<!-- sorting&#45;&gt;vectors -->
<g id="edge33" class="edge">
<title>sorting&#45;&gt;vectors</title>
<path fill="none" stroke="black" d="M332.54,-939.27C329.33,-938.12 326.12,-937.01 323,-936 269.57,-918.73 206.86,-902.96 165.65,-893.19"/>
<polygon fill="black" stroke="black" points="166.19,-889.72 155.65,-890.84 164.58,-896.54 166.19,-889.72"/>
</g>
<!-- sorting&#45;&gt;lia -->
<g id="edge31" class="edge">
<title>sorting&#45;&gt;lia</title>
<path fill="none" stroke="black" d="M346.73,-935.7C336.5,-926.97 323.94,-916.24 312.82,-906.75"/>
<polygon fill="black" stroke="black" points="314.91,-903.94 305.04,-900.1 310.37,-909.26 314.91,-903.94"/>
</g>
<!-- sets -->
<g id="node30" class="node">
<title>sets</title>
<g id="a_node30"><a xlink:href="#sets" xlink:title="sets">
<polygon fill="#ff540a" stroke="#ff540a" points="384,-900 330,-900 330,-864 384,-864 384,-900"/>
<text text-anchor="middle" x="357" y="-878.3" font-family="Times,serif" font-size="14.00">sets</text>
</a>
</g>
</g>
<!-- sorting&#45;&gt;sets -->
<g id="edge32" class="edge">
<title>sorting&#45;&gt;sets</title>
<path fill="none" stroke="black" d="M364.53,-935.7C363.43,-927.98 362.1,-918.71 360.87,-910.11"/>
<polygon fill="black" stroke="black" points="364.32,-909.51 359.44,-900.1 357.39,-910.5 364.32,-909.51"/>
</g>
<!-- sets&#45;&gt;classical&#45;logic -->
<g id="edge30" class="edge">
<title>sets&#45;&gt;classical&#45;logic</title>
<path fill="none" stroke="black" d="M338.96,-863.7C329.94,-855.05 318.88,-844.45 309.06,-835.03"/>
<polygon fill="black" stroke="black" points="311.48,-832.5 301.84,-828.1 306.63,-837.55 311.48,-832.5"/>
</g>
<!-- primitive&#45;floats -->
<g id="node31" class="node">
<title>primitive&#45;floats</title>
<g id="a_node31"><a xlink:href="#primitive-floats" xlink:title="primitive&#45;floats">
<polygon fill="#ff540a" stroke="#ff540a" points="763.5,-1116 638.5,-1116 638.5,-1080 763.5,-1080 763.5,-1116"/>
<text text-anchor="middle" x="701" y="-1094.3" font-family="Times,serif" font-size="14.00">primitive&#45;floats</text>
</a>
</g>
</g>
<!-- primitive&#45;floats&#45;&gt;primitive&#45;int -->
<g id="edge34" class="edge">
<title>primitive&#45;floats&#45;&gt;primitive&#45;int</title>
<path fill="none" stroke="black" d="M682.96,-1079.7C673.94,-1071.05 662.88,-1060.45 653.06,-1051.03"/>
<polygon fill="black" stroke="black" points="655.48,-1048.5 645.84,-1044.1 650.63,-1053.55 655.48,-1048.5"/>
</g>
<!-- wellfounded -->
<g id="node32" class="node">
<title>wellfounded</title>
<g id="a_node32"><a xlink:href="#wellfounded" xlink:title="wellfounded">
<polygon fill="#ff540a" stroke="#ff540a" points="104,-828 0,-828 0,-792 104,-792 104,-828"/>
<text text-anchor="middle" x="52" y="-806.3" font-family="Times,serif" font-size="14.00">wellfounded</text>
</a>
</g>
</g>
<!-- wellfounded&#45;&gt;lists -->
<g id="edge35" class="edge">
<title>wellfounded&#45;&gt;lists</title>
<path fill="none" stroke="black" d="M54.39,-791.83C59.97,-758.59 77.05,-685.42 123,-648 154.83,-622.08 272.15,-605.73 332.94,-598.81"/>
<polygon fill="black" stroke="black" points="333.34,-602.29 342.89,-597.71 332.57,-595.33 333.34,-602.29"/>
</g>
<!-- primitive&#45;string -->
<g id="node33" class="node">
<title>primitive&#45;string</title>
<g id="a_node33"><a xlink:href="#primitive-string" xlink:title="primitive&#45;string">
<polygon fill="#ff540a" stroke="#ff540a" points="620.5,-1116 491.5,-1116 491.5,-1080 620.5,-1080 620.5,-1116"/>
<text text-anchor="middle" x="556" y="-1094.3" font-family="Times,serif" font-size="14.00">primitive&#45;string</text>
</a>
</g>
</g>
<!-- primitive&#45;string&#45;&gt;primitive&#45;int -->
<g id="edge37" class="edge">
<title>primitive&#45;string&#45;&gt;primitive&#45;int</title>
<path fill="none" stroke="black" d="M573.8,-1079.7C582.6,-1071.14 593.38,-1060.66 603,-1051.3"/>
<polygon fill="black" stroke="black" points="605.68,-1053.58 610.41,-1044.1 600.8,-1048.57 605.68,-1053.58"/>
</g>
<!-- primitive&#45;string&#45;&gt;orders&#45;ex -->
<g id="edge38" class="edge">
<title>primitive&#45;string&#45;&gt;orders&#45;ex</title>
<path fill="none" stroke="black" d="M522.24,-1079.88C503.78,-1070.51 480.72,-1058.81 460.98,-1048.8"/>
<polygon fill="black" stroke="black" points="462.39,-1045.59 451.89,-1044.19 459.22,-1051.83 462.39,-1045.59"/>
</g>
<!-- qarith&#45;base&#45;&gt;ring -->
<g id="edge43" class="edge">
<title>qarith&#45;base&#45;&gt;ring</title>
<path fill="none" stroke="black" d="M187.33,-935.69C186.91,-904.66 189.63,-838.5 217,-792 244.95,-744.51 298.07,-707.4 333.76,-686.34"/>
<polygon fill="black" stroke="black" points="335.97,-689.11 342.89,-681.09 332.47,-683.05 335.97,-689.11"/>
</g>
<!-- extraction -->
<g id="node35" class="node">
<title>extraction</title>
<g id="a_node35"><a xlink:href="#extraction" xlink:title="extraction">
<polygon fill="#ff540a" stroke="#ff540a" points="727.5,-1188 638.5,-1188 638.5,-1152 727.5,-1152 727.5,-1188"/>
<text text-anchor="middle" x="683" y="-1166.3" font-family="Times,serif" font-size="14.00">extraction</text>
</a>
</g>
</g>
<!-- extraction&#45;&gt;primitive&#45;floats -->
<g id="edge48" class="edge">
<title>extraction&#45;&gt;primitive&#45;floats</title>
<path fill="none" stroke="black" d="M687.45,-1151.7C689.45,-1143.9 691.87,-1134.51 694.1,-1125.83"/>
<polygon fill="black" stroke="black" points="697.5,-1126.66 696.6,-1116.1 690.72,-1124.92 697.5,-1126.66"/>
</g>
<!-- extraction&#45;&gt;primitive&#45;string -->
<g id="edge47" class="edge">
<title>extraction&#45;&gt;primitive&#45;string</title>
<path fill="none" stroke="black" d="M651.93,-1151.88C635.17,-1142.64 614.29,-1131.13 596.3,-1121.21"/>
<polygon fill="black" stroke="black" points="597.63,-1117.95 587.19,-1116.19 594.26,-1124.08 597.63,-1117.95"/>
</g>
<!-- primitive&#45;array -->
<g id="node36" class="node">
<title>primitive&#45;array</title>
<g id="a_node36"><a xlink:href="#primitive-array" xlink:title="primitive&#45;array">
<polygon fill="#ff540a" stroke="#ff540a" points="906.5,-1116 781.5,-1116 781.5,-1080 906.5,-1080 906.5,-1116"/>
<text text-anchor="middle" x="844" y="-1094.3" font-family="Times,serif" font-size="14.00">primitive&#45;array</text>
</a>
</g>
</g>
<!-- extraction&#45;&gt;primitive&#45;array -->
<g id="edge49" class="edge">
<title>extraction&#45;&gt;primitive&#45;array</title>
<path fill="none" stroke="black" d="M722.39,-1151.88C744.39,-1142.31 772.01,-1130.3 795.36,-1120.15"/>
<polygon fill="black" stroke="black" points="796.97,-1123.27 804.74,-1116.07 794.18,-1116.85 796.97,-1123.27"/>
</g>
<!-- primitive&#45;array&#45;&gt;primitive&#45;int -->
<g id="edge50" class="edge">
<title>primitive&#45;array&#45;&gt;primitive&#45;int</title>
<path fill="none" stroke="black" d="M791.44,-1079.97C760.99,-1070.1 722.49,-1057.62 690.5,-1047.25"/>
<polygon fill="black" stroke="black" points="691.39,-1043.86 680.8,-1044.11 689.23,-1050.52 691.39,-1043.86"/>
</g>
<!-- streams -->
<g id="node37" class="node">
<title>streams</title>
<g id="a_node37"><a xlink:href="#streams" xlink:title="streams">
<polygon fill="#ff540a" stroke="#ff540a" points="1075,-828 1001,-828 1001,-792 1075,-792 1075,-828"/>
<text text-anchor="middle" x="1038" y="-806.3" font-family="Times,serif" font-size="14.00">streams</text>
</a>
</g>
</g>
<!-- streams&#45;&gt;logic -->
<g id="edge51" class="edge">
<title>streams&#45;&gt;logic</title>
<path fill="none" stroke="black" d="M1038,-791.95C1038,-765.29 1038,-712.11 1038,-667 1038,-667 1038,-667 1038,-161 1038,-118.49 1017.2,-72.95 1001.91,-45.22"/>
<polygon fill="black" stroke="black" points="1004.76,-43.15 996.77,-36.19 998.67,-46.61 1004.76,-43.15"/>
</g>
<!-- funind -->
<g id="node38" class="node">
<title>funind</title>
<g id="a_node38"><a xlink:href="#funind" xlink:title="funind">
<polygon fill="#ff540a" stroke="#ff540a" points="1010,-756 948,-756 948,-720 1010,-720 1010,-756"/>
<text text-anchor="middle" x="979" y="-734.3" font-family="Times,serif" font-size="14.00">funind</text>
</a>
</g>
</g>
<!-- funind&#45;&gt;arith&#45;base -->
<g id="edge52" class="edge">
<title>funind&#45;&gt;arith&#45;base</title>
<path fill="none" stroke="black" d="M947.7,-721.05C894.47,-692.88 792,-633.62 792,-595 792,-595 792,-595 792,-521 792,-442.82 692.54,-405.53 627.67,-389.51"/>
<polygon fill="black" stroke="black" points="628.12,-386.02 617.58,-387.12 626.51,-392.83 628.12,-386.02"/>
</g>
<!-- rtauto -->
<g id="node39" class="node">
<title>rtauto</title>
<g id="a_node39"><a xlink:href="#rtauto" xlink:title="rtauto">
<polygon fill="#ff540a" stroke="#ff540a" points="584.5,-684 523.5,-684 523.5,-648 584.5,-648 584.5,-684"/>
<text text-anchor="middle" x="554" y="-662.3" font-family="Times,serif" font-size="14.00">rtauto</text>
</a>
</g>
</g>
<!-- rtauto&#45;&gt;positive -->
<g id="edge53" class="edge">
<title>rtauto&#45;&gt;positive</title>
<path fill="none" stroke="black" d="M554,-647.85C554,-610.83 554,-523.18 554,-478.39"/>
<polygon fill="black" stroke="black" points="557.5,-478.23 554,-468.23 550.5,-478.23 557.5,-478.23"/>
</g>
<!-- rtauto&#45;&gt;lists -->
<g id="edge54" class="edge">
<title>rtauto&#45;&gt;lists</title>
<path fill="none" stroke="black" d="M523.2,-653.28C491.17,-641.1 441.03,-622.02 406.9,-609.04"/>
<polygon fill="black" stroke="black" points="407.88,-605.67 397.29,-605.38 405.39,-612.21 407.88,-605.67"/>
</g>
<!-- compat -->
<g id="node40" class="node">
<title>compat</title>
<g id="a_node40"><a xlink:href="#compat" xlink:title="compat">
<polygon fill="#ff540a" stroke="#ff540a" points="662.5,-1260 593.5,-1260 593.5,-1224 662.5,-1224 662.5,-1260"/>
<text text-anchor="middle" x="628" y="-1238.3" font-family="Times,serif" font-size="14.00">compat</text>
</a>
</g>
</g>
<!-- compat&#45;&gt;reals -->
<g id="edge55" class="edge">
<title>compat&#45;&gt;reals</title>
<path fill="none" stroke="black" d="M593.44,-1235.62C510.46,-1222.72 300.55,-1190.06 215.07,-1176.77"/>
<polygon fill="black" stroke="black" points="215.47,-1173.29 205.05,-1175.21 214.39,-1180.2 215.47,-1173.29"/>
</g>
<!-- compat&#45;&gt;fmaps&#45;fsets&#45;msets -->
<g id="edge56" class="edge">
<title>compat&#45;&gt;fmaps&#45;fsets&#45;msets</title>
<path fill="none" stroke="black" d="M600.5,-1223.87C559.41,-1198.28 481.97,-1150.05 436.29,-1121.6"/>
<polygon fill="black" stroke="black" points="437.94,-1118.5 427.6,-1116.19 434.24,-1124.45 437.94,-1118.5"/>
</g>
<!-- compat&#45;&gt;wellfounded -->
<g id="edge57" class="edge">
<title>compat&#45;&gt;wellfounded</title>
<path fill="none" stroke="black" d="M593.48,-1239.81C496.56,-1236.08 223.75,-1222.68 142,-1188 85.06,-1163.84 35,-1160.86 35,-1099 35,-1099 35,-1099 35,-953 35,-912.93 41.76,-866.95 46.75,-838.43"/>
<polygon fill="black" stroke="black" points="50.23,-838.87 48.56,-828.41 43.34,-837.63 50.23,-838.87"/>
</g>
<!-- compat&#45;&gt;primitive&#45;string -->
<g id="edge58" class="edge">
<title>compat&#45;&gt;primitive&#45;string</title>
<path fill="none" stroke="black" d="M619.32,-1223.87C606.88,-1199.35 583.9,-1154.03 569.31,-1125.26"/>
<polygon fill="black" stroke="black" points="572.36,-1123.53 564.72,-1116.19 566.12,-1126.69 572.36,-1123.53"/>
</g>
<!-- compat&#45;&gt;extraction -->
<g id="edge59" class="edge">
<title>compat&#45;&gt;extraction</title>
<path fill="none" stroke="black" d="M641.6,-1223.7C648.12,-1215.39 656.07,-1205.28 663.25,-1196.14"/>
<polygon fill="black" stroke="black" points="666.13,-1198.13 669.56,-1188.1 660.63,-1193.81 666.13,-1198.13"/>
</g>
<!-- compat&#45;&gt;streams -->
<g id="edge60" class="edge">
<title>compat&#45;&gt;streams</title>
<path fill="none" stroke="black" d="M662.78,-1240.13C742.78,-1237.47 936.86,-1227.05 987,-1188 1020.8,-1161.68 1024,-1141.84 1024,-1099 1024,-1099 1024,-1099 1024,-953 1024,-913.02 1029.56,-867.02 1033.68,-838.47"/>
<polygon fill="black" stroke="black" points="1037.16,-838.84 1035.17,-828.43 1030.24,-837.81 1037.16,-838.84"/>
</g>
<!-- compat&#45;&gt;funind -->
<g id="edge61" class="edge">
<title>compat&#45;&gt;funind</title>
<path fill="none" stroke="black" d="M662.74,-1239.88C736.9,-1236.79 907.38,-1225.66 949,-1188 979.38,-1160.51 973,-1139.97 973,-1099 973,-1099 973,-1099 973,-881 973,-840.96 975.41,-794.63 977.18,-766.07"/>
<polygon fill="black" stroke="black" points="980.67,-766.24 977.81,-756.04 973.69,-765.8 980.67,-766.24"/>
</g>
<!-- compat&#45;&gt;rtauto -->
<g id="edge62" class="edge">
<title>compat&#45;&gt;rtauto</title>
<path fill="none" stroke="black" d="M662.66,-1237.46C747.8,-1227.03 957.35,-1189.91 916,-1080 848.11,-899.55 661.62,-746.5 586.24,-690.14"/>
<polygon fill="black" stroke="black" points="588.15,-687.2 578.03,-684.06 583.99,-692.83 588.15,-687.2"/>
</g>
<!-- all -->
<g id="node41" class="node">
<title>all</title>
<g id="a_node41"><a xlink:href="#all" xlink:title="all">
<polygon fill="#ff540a" stroke="#ff540a" points="655,-1332 601,-1332 601,-1296 655,-1296 655,-1332"/>
<text text-anchor="middle" x="628" y="-1310.3" font-family="Times,serif" font-size="14.00">all</text>
</a>
</g>
</g>
<!-- all&#45;&gt;compat -->
<g id="edge63" class="edge">
<title>all&#45;&gt;compat</title>
<path fill="none" stroke="black" d="M628,-1295.7C628,-1287.98 628,-1278.71 628,-1270.11"/>
<polygon fill="black" stroke="black" points="631.5,-1270.1 628,-1260.1 624.5,-1270.1 631.5,-1270.1"/>
</g>
</g>
</svg>
